<svg width="36" height="36" viewBox="0 0 36 36" fill="none" xmlns="http://www.w3.org/2000/svg">
<rect x="0.5" y="0.5" width="35" height="35" rx="5.5" fill="#FDFDFF"/>
<path d="M19.1751 18L24.4251 12.7583C24.582 12.6014 24.6702 12.3886 24.6702 12.1667C24.6702 11.9448 24.582 11.7319 24.4251 11.575C24.2682 11.4181 24.0554 11.3299 23.8334 11.3299C23.6115 11.3299 23.3987 11.4181 23.2418 11.575L18.0001 16.825L12.7584 11.575C12.6015 11.4181 12.3887 11.3299 12.1668 11.3299C11.9449 11.3299 11.732 11.4181 11.5751 11.575C11.4182 11.7319 11.33 11.9448 11.33 12.1667C11.33 12.3886 11.4182 12.6014 11.5751 12.7583L16.8251 18L11.5751 23.2417C11.497 23.3191 11.435 23.4113 11.3927 23.5129C11.3504 23.6144 11.3286 23.7233 11.3286 23.8333C11.3286 23.9433 11.3504 24.0523 11.3927 24.1538C11.435 24.2554 11.497 24.3475 11.5751 24.425C11.6526 24.5031 11.7447 24.5651 11.8463 24.6074C11.9478 24.6497 12.0568 24.6715 12.1668 24.6715C12.2768 24.6715 12.3857 24.6497 12.4873 24.6074C12.5888 24.5651 12.681 24.5031 12.7584 24.425L18.0001 19.175L23.2418 24.425C23.3192 24.5031 23.4114 24.5651 23.513 24.6074C23.6145 24.6497 23.7234 24.6715 23.8334 24.6715C23.9435 24.6715 24.0524 24.6497 24.1539 24.6074C24.2555 24.5651 24.3476 24.5031 24.4251 24.425C24.5032 24.3475 24.5652 24.2554 24.6075 24.1538C24.6498 24.0523 24.6716 23.9433 24.6716 23.8333C24.6716 23.7233 24.6498 23.6144 24.6075 23.5129C24.5652 23.4113 24.5032 23.3191 24.4251 23.2417L19.1751 18Z" fill="#1D3853"/>
<rect x="0.5" y="0.5" width="35" height="35" rx="5.5" stroke="#1D3853"/>
</svg>
