<svg width="16" height="16" viewBox="0 0 16 16" fill="none" xmlns="http://www.w3.org/2000/svg">
<path d="M8.73152 8.73151L15.2633 8.7367C15.4587 8.7367 15.6461 8.65909 15.7842 8.52093C15.9224 8.38277 16 8.19538 16 8C16 7.80461 15.9224 7.61723 15.7842 7.47907C15.6461 7.34091 15.4587 7.26329 15.2633 7.26329L8.73152 7.26848L8.73671 0.736705C8.73671 0.541319 8.65909 0.353935 8.52093 0.215776C8.38277 0.0776171 8.19539 6.98758e-09 8 0C7.80462 -6.98755e-09 7.61723 0.077617 7.47907 0.215776C7.34091 0.353935 7.2633 0.541319 7.2633 0.736705L7.26849 7.26848L0.736711 7.26329C0.639854 7.2629 0.543878 7.28168 0.454317 7.31856C0.364757 7.35544 0.283385 7.40969 0.214896 7.47818C0.146408 7.54667 0.0921575 7.62804 0.0552752 7.7176C0.018393 7.80716 -0.000390953 7.90314 6.16762e-06 8C-0.000390946 8.09685 0.0183925 8.19283 0.0552747 8.28239C0.092157 8.37195 0.146408 8.45332 0.214896 8.52181C0.283385 8.5903 0.364756 8.64455 0.454317 8.68143C0.543877 8.71832 0.639855 8.7371 0.736712 8.7367L7.26849 8.73151L7.2633 15.2633C7.2629 15.3601 7.28168 15.4561 7.31857 15.5457C7.35545 15.6352 7.4097 15.7166 7.47819 15.7851C7.54668 15.8536 7.62805 15.9078 7.71761 15.9447C7.80717 15.9816 7.90315 16.0004 8 16C8.09686 16.0004 8.19284 15.9816 8.2824 15.9447C8.37196 15.9078 8.45333 15.8536 8.52182 15.7851C8.59031 15.7166 8.64456 15.6352 8.68144 15.5457C8.71832 15.4561 8.73711 15.3601 8.73671 15.2633L8.73152 8.73151Z" fill="white"/>
</svg>
