<svg width="18" height="18" viewBox="0 0 18 18" fill="none" xmlns="http://www.w3.org/2000/svg">
<path fill-rule="evenodd" clip-rule="evenodd" d="M8.99984 2.33333C5.31794 2.33333 2.33317 5.3181 2.33317 9C2.33317 12.6819 5.31794 15.6667 8.99984 15.6667C12.6817 15.6667 15.6665 12.6819 15.6665 9C15.6665 5.3181 12.6817 2.33333 8.99984 2.33333ZM0.666504 9C0.666504 4.39762 4.39746 0.666664 8.99984 0.666664C13.6022 0.666664 17.3332 4.39762 17.3332 9C17.3332 13.6024 13.6022 17.3333 8.99984 17.3333C4.39746 17.3333 0.666504 13.6024 0.666504 9ZM8.99984 4.83333C9.46008 4.83333 9.83317 5.20643 9.83317 5.66666V9C9.83317 9.46024 9.46008 9.83333 8.99984 9.83333C8.5396 9.83333 8.1665 9.46024 8.1665 9V5.66666C8.1665 5.20643 8.5396 4.83333 8.99984 4.83333ZM8.1665 12.3333C8.1665 11.8731 8.5396 11.5 8.99984 11.5H9.00817C9.46841 11.5 9.8415 11.8731 9.8415 12.3333C9.8415 12.7936 9.46841 13.1667 9.00817 13.1667H8.99984C8.5396 13.1667 8.1665 12.7936 8.1665 12.3333Z" fill="#A72D1A"/>
</svg>
