<svg width="80" height="28" viewBox="0 0 80 28" fill="none" xmlns="http://www.w3.org/2000/svg">
<g clip-path="url(#clip0_6345_22674)">
<path d="M2.84177 14.1689V21.7063H1V5H2.84177V11.1344H2.99785C3.2788 10.4872 3.70022 9.97329 4.26212 9.59261C4.82922 9.20649 5.58362 9.01344 6.52531 9.01344C7.34215 9.01344 8.05752 9.18474 8.67145 9.52735C9.28537 9.86452 9.76142 10.3839 10.0996 11.0854C10.443 11.7815 10.6147 12.6679 10.6147 13.7447V21.7063H8.7729V13.8752C8.7729 12.88 8.52577 12.1105 8.03151 11.5667C7.54245 11.0174 6.86349 10.7428 5.99463 10.7428C5.39112 10.7428 4.85003 10.876 4.37138 11.1425C3.89793 11.409 3.52333 11.7978 3.24759 12.309C2.97704 12.8202 2.84177 13.4402 2.84177 14.1689Z" fill="#122334"/>
<path d="M19.01 21.9674C17.8549 21.9674 16.8586 21.7009 16.021 21.1679C15.1885 20.6296 14.546 19.8791 14.0934 18.9165C13.6459 17.9485 13.4222 16.8228 13.4222 15.5393C13.4222 14.2559 13.6459 13.1248 14.0934 12.1459C14.546 11.1615 15.1755 10.3948 15.982 9.84549C16.7936 9.29079 17.7405 9.01344 18.8227 9.01344C19.447 9.01344 20.0635 9.1222 20.6722 9.33973C21.2809 9.55726 21.835 9.91075 22.3345 10.4002C22.834 10.8842 23.232 11.5259 23.5285 12.3253C23.8251 13.1248 23.9734 14.1091 23.9734 15.2783V16.094H14.7333V14.4299H22.1004C22.1004 13.723 21.9651 13.0921 21.6946 12.5374C21.4292 11.9827 21.0494 11.5449 20.5552 11.2241C20.0661 10.9032 19.4886 10.7428 18.8227 10.7428C18.0891 10.7428 17.4543 10.9331 16.9184 11.3138C16.3878 11.6891 15.9794 12.1785 15.6932 12.7821C15.4071 13.3858 15.264 14.0329 15.264 14.7236V15.833C15.264 16.7793 15.4201 17.5814 15.7322 18.2394C16.0496 18.892 16.4892 19.3896 17.0511 19.7322C17.613 20.0694 18.266 20.238 19.01 20.238C19.4938 20.238 19.9308 20.1673 20.321 20.0259C20.7164 19.8791 21.0572 19.6615 21.3434 19.3733C21.6295 19.0797 21.8506 18.7153 22.0067 18.2802L23.7861 18.8023C23.5988 19.4331 23.284 19.9878 22.8418 20.4664C22.3995 20.9395 21.8533 21.3093 21.2029 21.5758C20.5526 21.8369 19.8216 21.9674 19.01 21.9674Z" fill="#122334"/>
<path d="M30.3025 22C29.5429 22 28.8535 21.8504 28.2344 21.5513C27.6153 21.2468 27.1236 20.809 26.7594 20.238C26.3952 19.6615 26.2132 18.9655 26.2132 18.1497C26.2132 17.4319 26.3484 16.85 26.619 16.404C26.8895 15.9527 27.2511 15.5992 27.7037 15.3436C28.1564 15.088 28.6558 14.8976 29.2021 14.7726C29.7536 14.642 30.3077 14.5387 30.8644 14.4626C31.5928 14.3647 32.1833 14.2913 32.6359 14.2423C33.0938 14.1879 33.4268 14.0982 33.6349 13.9731C33.8482 13.848 33.9548 13.6305 33.9548 13.3205V13.2553C33.9548 12.4504 33.7441 11.825 33.3227 11.3791C32.9065 10.9331 32.2743 10.7102 31.4263 10.7102C30.547 10.7102 29.8577 10.9114 29.3582 11.3138C28.8587 11.7163 28.5076 12.1459 28.3047 12.6027L26.5565 11.9501C26.8687 11.1887 27.2849 10.596 27.8052 10.1718C28.3307 9.74216 28.903 9.44306 29.5221 9.27447C30.1464 9.10045 30.7603 9.01344 31.3639 9.01344C31.7489 9.01344 32.1911 9.06238 32.6906 9.16027C33.1952 9.25272 33.6817 9.44578 34.1499 9.73944C34.6234 10.0331 35.0162 10.4763 35.3284 11.0691C35.6405 11.6619 35.7966 12.4559 35.7966 13.4511V21.7063H33.9548V20.0096H33.8612C33.7363 20.2815 33.5282 20.5725 33.2369 20.8824C32.9455 21.1924 32.5579 21.4562 32.074 21.6737C31.5902 21.8912 30.9997 22 30.3025 22ZM30.5835 20.2706C31.3118 20.2706 31.9258 20.1211 32.4252 19.822C32.9299 19.5229 33.3097 19.1368 33.5646 18.6636C33.8248 18.1905 33.9548 17.6929 33.9548 17.1708V15.4088C33.8768 15.5067 33.7051 15.5964 33.4398 15.678C33.1796 15.7542 32.8779 15.8221 32.5345 15.882C32.1963 15.9363 31.8659 15.9853 31.5434 16.0288C31.226 16.0669 30.9685 16.0995 30.7708 16.1267C30.2921 16.1919 29.8447 16.298 29.4284 16.4448C29.0174 16.5862 28.6845 16.801 28.4295 17.0893C28.1798 17.372 28.0549 17.7582 28.0549 18.2476C28.0549 18.9165 28.2916 19.4223 28.7651 19.7649C29.2437 20.102 29.8499 20.2706 30.5835 20.2706Z" fill="#122334"/>
<path d="M41 5V21.7063H39.1582V5H41Z" fill="#122334"/>
<path d="M2.84177 14.1689V21.7063H1V5H2.84177V11.1344H2.99785C3.2788 10.4872 3.70022 9.97329 4.26212 9.59261C4.82922 9.20649 5.58362 9.01344 6.52531 9.01344C7.34215 9.01344 8.05752 9.18474 8.67145 9.52735C9.28537 9.86452 9.76142 10.3839 10.0996 11.0854C10.443 11.7815 10.6147 12.6679 10.6147 13.7447V21.7063H8.7729V13.8752C8.7729 12.88 8.52577 12.1105 8.03151 11.5667C7.54245 11.0174 6.86349 10.7428 5.99463 10.7428C5.39112 10.7428 4.85003 10.876 4.37138 11.1425C3.89793 11.409 3.52333 11.7978 3.24759 12.309C2.97704 12.8202 2.84177 13.4402 2.84177 14.1689Z" stroke="#122334" stroke-width="0.5"/>
<path d="M19.01 21.9674C17.8549 21.9674 16.8586 21.7009 16.021 21.1679C15.1885 20.6296 14.546 19.8791 14.0934 18.9165C13.6459 17.9485 13.4222 16.8228 13.4222 15.5393C13.4222 14.2559 13.6459 13.1248 14.0934 12.1459C14.546 11.1615 15.1755 10.3948 15.982 9.84549C16.7936 9.29079 17.7405 9.01344 18.8227 9.01344C19.447 9.01344 20.0635 9.1222 20.6722 9.33973C21.2809 9.55726 21.835 9.91075 22.3345 10.4002C22.834 10.8842 23.232 11.5259 23.5285 12.3253C23.8251 13.1248 23.9734 14.1091 23.9734 15.2783V16.094H14.7333V14.4299H22.1004C22.1004 13.723 21.9651 13.0921 21.6946 12.5374C21.4292 11.9827 21.0494 11.5449 20.5552 11.2241C20.0661 10.9032 19.4886 10.7428 18.8227 10.7428C18.0891 10.7428 17.4543 10.9331 16.9184 11.3138C16.3878 11.6891 15.9794 12.1785 15.6932 12.7821C15.4071 13.3858 15.264 14.0329 15.264 14.7236V15.833C15.264 16.7793 15.4201 17.5814 15.7322 18.2394C16.0496 18.892 16.4892 19.3896 17.0511 19.7322C17.613 20.0694 18.266 20.238 19.01 20.238C19.4938 20.238 19.9308 20.1673 20.321 20.0259C20.7164 19.8791 21.0572 19.6615 21.3434 19.3733C21.6295 19.0797 21.8506 18.7153 22.0067 18.2802L23.7861 18.8023C23.5988 19.4331 23.284 19.9878 22.8418 20.4664C22.3995 20.9395 21.8533 21.3093 21.2029 21.5758C20.5526 21.8369 19.8216 21.9674 19.01 21.9674Z" stroke="#122334" stroke-width="0.5"/>
<path d="M30.3025 22C29.5429 22 28.8535 21.8504 28.2344 21.5513C27.6153 21.2468 27.1236 20.809 26.7594 20.238C26.3952 19.6615 26.2132 18.9655 26.2132 18.1497C26.2132 17.4319 26.3484 16.85 26.619 16.404C26.8895 15.9527 27.2511 15.5992 27.7037 15.3436C28.1564 15.088 28.6558 14.8976 29.2021 14.7726C29.7536 14.642 30.3077 14.5387 30.8644 14.4626C31.5928 14.3647 32.1833 14.2913 32.6359 14.2423C33.0938 14.1879 33.4268 14.0982 33.6349 13.9731C33.8482 13.848 33.9548 13.6305 33.9548 13.3205V13.2553C33.9548 12.4504 33.7441 11.825 33.3227 11.3791C32.9065 10.9331 32.2743 10.7102 31.4263 10.7102C30.547 10.7102 29.8577 10.9114 29.3582 11.3138C28.8587 11.7163 28.5076 12.1459 28.3047 12.6027L26.5565 11.9501C26.8687 11.1887 27.2849 10.596 27.8052 10.1718C28.3307 9.74216 28.903 9.44306 29.5221 9.27447C30.1464 9.10045 30.7603 9.01344 31.3639 9.01344C31.7489 9.01344 32.1911 9.06238 32.6906 9.16027C33.1952 9.25272 33.6817 9.44578 34.1499 9.73944C34.6234 10.0331 35.0162 10.4763 35.3284 11.0691C35.6405 11.6619 35.7966 12.4559 35.7966 13.4511V21.7063H33.9548V20.0096H33.8612C33.7363 20.2815 33.5282 20.5725 33.2369 20.8824C32.9455 21.1924 32.5579 21.4562 32.074 21.6737C31.5902 21.8912 30.9997 22 30.3025 22ZM30.5835 20.2706C31.3118 20.2706 31.9258 20.1211 32.4252 19.822C32.9299 19.5229 33.3097 19.1368 33.5646 18.6636C33.8248 18.1905 33.9548 17.6929 33.9548 17.1708V15.4088C33.8768 15.5067 33.7051 15.5964 33.4398 15.678C33.1796 15.7542 32.8779 15.8221 32.5345 15.882C32.1963 15.9363 31.8659 15.9853 31.5434 16.0288C31.226 16.0669 30.9685 16.0995 30.7708 16.1267C30.2921 16.1919 29.8447 16.298 29.4284 16.4448C29.0174 16.5862 28.6845 16.801 28.4295 17.0893C28.1798 17.372 28.0549 17.7582 28.0549 18.2476C28.0549 18.9165 28.2916 19.4223 28.7651 19.7649C29.2437 20.102 29.8499 20.2706 30.5835 20.2706Z" stroke="#122334" stroke-width="0.5"/>
<path d="M41 5V21.7063H39.1582V5H41Z" stroke="#122334" stroke-width="0.5"/>
<g filter="url(#filter0_di_6345_22674)">
<path d="M44 2H75C77.2091 2 79 3.79086 79 6V21C79 23.2091 77.2091 25 75 25H44V2Z" fill="#4F4FFF"/>
</g>
<path d="M52.617 7V19.8185H50V7H52.617Z" fill="white"/>
<path d="M57.4041 20C56.8021 20 56.2656 19.8936 55.7946 19.6808C55.3236 19.4638 54.9509 19.1446 54.6765 18.7232C54.4062 18.2975 54.2711 17.7676 54.2711 17.1334C54.2711 16.5993 54.3673 16.1507 54.5598 15.7877C54.7523 15.4247 55.0144 15.1326 55.3461 14.9114C55.6779 14.6903 56.0546 14.5234 56.4765 14.4107C56.9024 14.298 57.3488 14.2187 57.8157 14.1728C58.3645 14.1144 58.8068 14.0602 59.1426 14.0101C59.4785 13.9559 59.7221 13.8766 59.8737 13.7723C60.0252 13.668 60.101 13.5136 60.101 13.3091V13.2715C60.101 12.8751 59.9781 12.5684 59.7324 12.3515C59.4908 12.1345 59.1467 12.026 58.7003 12.026C58.2293 12.026 57.8546 12.1324 57.5761 12.3452C57.2976 12.5538 57.1133 12.8167 57.0232 13.1338L54.6028 12.9336C54.7257 12.3494 54.9673 11.8445 55.3277 11.4189C55.6881 10.9891 56.1529 10.6594 56.7222 10.4299C57.2956 10.1963 57.959 10.0794 58.7126 10.0794C59.2368 10.0794 59.7385 10.142 60.2177 10.2672C60.701 10.3924 61.1289 10.5864 61.5016 10.8493C61.8784 11.1122 62.1753 11.4502 62.3924 11.8633C62.6095 12.2722 62.718 12.7625 62.718 13.3341V19.8185H60.2361V18.4853H60.1624C60.0109 18.7857 59.8082 19.0507 59.5542 19.2802C59.3003 19.5055 58.9952 19.6829 58.6389 19.8122C58.2826 19.9374 57.871 20 57.4041 20ZM58.1536 18.1598C58.5386 18.1598 58.8785 18.0827 59.1734 17.9283C59.4682 17.7697 59.6996 17.5569 59.8675 17.2898C60.0354 17.0228 60.1194 16.7203 60.1194 16.3823V15.3621C60.0375 15.4163 59.9249 15.4664 59.7815 15.5123C59.6423 15.554 59.4846 15.5936 59.3085 15.6312C59.1324 15.6646 58.9563 15.6959 58.7802 15.7251C58.6041 15.7501 58.4444 15.7731 58.301 15.7939C57.9939 15.8398 57.7256 15.9129 57.4963 16.013C57.2669 16.1131 57.0888 16.2488 56.9618 16.4198C56.8348 16.5867 56.7714 16.7954 56.7714 17.0457C56.7714 17.4088 56.9004 17.6862 57.1584 17.8782C57.4205 18.066 57.7522 18.1598 58.1536 18.1598Z" fill="white"/>
<path d="M64.7975 19.8185V7H67.4145V11.8195H67.4943C67.609 11.5607 67.7749 11.2979 67.9919 11.0308C68.2131 10.7596 68.4998 10.5343 68.852 10.3548C69.2083 10.1712 69.6506 10.0794 70.1789 10.0794C70.867 10.0794 71.5018 10.263 72.0833 10.6302C72.6649 10.9933 73.1297 11.542 73.4778 12.2764C73.8259 13.0066 74 13.9225 74 15.0241C74 16.0965 73.83 17.0019 73.4901 17.7405C73.1543 18.4749 72.6956 19.0319 72.114 19.4117C71.5366 19.7872 70.8895 19.975 70.1728 19.975C69.6649 19.975 69.2329 19.8894 68.8766 19.7183C68.5243 19.5473 68.2356 19.3324 68.0104 19.0737C67.7851 18.8108 67.6131 18.5458 67.4943 18.2788H67.3776V19.8185H64.7975ZM67.3592 15.0116C67.3592 15.5832 67.437 16.0818 67.5926 16.5075C67.7483 16.9331 67.9735 17.2648 68.2684 17.5026C68.5633 17.7363 68.9216 17.8532 69.3434 17.8532C69.7694 17.8532 70.1298 17.7342 70.4247 17.4964C70.7195 17.2544 70.9427 16.9206 71.0943 16.4949C71.2499 16.0652 71.3277 15.5707 71.3277 15.0116C71.3277 14.4566 71.2519 13.9684 71.1004 13.5469C70.9489 13.1255 70.7257 12.7959 70.4308 12.558C70.1359 12.3202 69.7735 12.2013 69.3434 12.2013C68.9175 12.2013 68.5571 12.316 68.2622 12.5455C67.9715 12.775 67.7483 13.1005 67.5926 13.5219C67.437 13.9433 67.3592 14.4399 67.3592 15.0116Z" fill="white"/>
</g>
<defs>
<filter id="filter0_di_6345_22674" x="42" y="1" width="39" height="27" filterUnits="userSpaceOnUse" color-interpolation-filters="sRGB">
<feFlood flood-opacity="0" result="BackgroundImageFix"/>
<feColorMatrix in="SourceAlpha" type="matrix" values="0 0 0 0 0 0 0 0 0 0 0 0 0 0 0 0 0 0 127 0" result="hardAlpha"/>
<feOffset dy="1"/>
<feGaussianBlur stdDeviation="1"/>
<feComposite in2="hardAlpha" operator="out"/>
<feColorMatrix type="matrix" values="0 0 0 0 0.0968056 0 0 0 0 0.0968056 0 0 0 0 0.341667 0 0 0 0.2 0"/>
<feBlend mode="normal" in2="BackgroundImageFix" result="effect1_dropShadow_6345_22674"/>
<feBlend mode="normal" in="SourceGraphic" in2="effect1_dropShadow_6345_22674" result="shape"/>
<feColorMatrix in="SourceAlpha" type="matrix" values="0 0 0 0 0 0 0 0 0 0 0 0 0 0 0 0 0 0 127 0" result="hardAlpha"/>
<feOffset dy="2"/>
<feGaussianBlur stdDeviation="2"/>
<feComposite in2="hardAlpha" operator="arithmetic" k2="-1" k3="1"/>
<feColorMatrix type="matrix" values="0 0 0 0 0.383333 0 0 0 0 0.383333 0 0 0 0 1 0 0 0 1 0"/>
<feBlend mode="normal" in2="shape" result="effect2_innerShadow_6345_22674"/>
</filter>
<clipPath id="clip0_6345_22674">
<rect width="80" height="28" fill="white"/>
</clipPath>
</defs>
</svg>
