<svg width="36" height="36" viewBox="0 0 36 36" fill="none" xmlns="http://www.w3.org/2000/svg">
<rect x="0.5" y="0.5" width="35" height="35" rx="5.5" fill="#FDFDFF"/>
<path d="M16.3333 22.9998C16.5543 22.9998 16.7663 22.912 16.9226 22.7558C17.0789 22.5995 17.1667 22.3875 17.1667 22.1665V17.1665C17.1667 16.9455 17.0789 16.7335 16.9226 16.5772C16.7663 16.421 16.5543 16.3332 16.3333 16.3332C16.1123 16.3332 15.9004 16.421 15.7441 16.5772C15.5878 16.7335 15.5 16.9455 15.5 17.1665V22.1665C15.5 22.3875 15.5878 22.5995 15.7441 22.7558C15.9004 22.912 16.1123 22.9998 16.3333 22.9998ZM24.6667 12.9998H21.3333V12.1665C21.3333 11.5035 21.0699 10.8676 20.6011 10.3987C20.1323 9.9299 19.4964 9.6665 18.8333 9.6665H17.1667C16.5036 9.6665 15.8677 9.9299 15.3989 10.3987C14.9301 10.8676 14.6667 11.5035 14.6667 12.1665V12.9998H11.3333C11.1123 12.9998 10.9004 13.0876 10.7441 13.2439C10.5878 13.4002 10.5 13.6122 10.5 13.8332C10.5 14.0542 10.5878 14.2661 10.7441 14.4224C10.9004 14.5787 11.1123 14.6665 11.3333 14.6665H12.1667V23.8332C12.1667 24.4962 12.4301 25.1321 12.8989 25.6009C13.3677 26.0698 14.0036 26.3332 14.6667 26.3332H21.3333C21.9964 26.3332 22.6323 26.0698 23.1011 25.6009C23.5699 25.1321 23.8333 24.4962 23.8333 23.8332V14.6665H24.6667C24.8877 14.6665 25.0996 14.5787 25.2559 14.4224C25.4122 14.2661 25.5 14.0542 25.5 13.8332C25.5 13.6122 25.4122 13.4002 25.2559 13.2439C25.0996 13.0876 24.8877 12.9998 24.6667 12.9998ZM16.3333 12.1665C16.3333 11.9455 16.4211 11.7335 16.5774 11.5772C16.7337 11.421 16.9457 11.3332 17.1667 11.3332H18.8333C19.0543 11.3332 19.2663 11.421 19.4226 11.5772C19.5789 11.7335 19.6667 11.9455 19.6667 12.1665V12.9998H16.3333V12.1665ZM22.1667 23.8332C22.1667 24.0542 22.0789 24.2661 21.9226 24.4224C21.7663 24.5787 21.5543 24.6665 21.3333 24.6665H14.6667C14.4457 24.6665 14.2337 24.5787 14.0774 24.4224C13.9211 24.2661 13.8333 24.0542 13.8333 23.8332V14.6665H22.1667V23.8332ZM19.6667 22.9998C19.8877 22.9998 20.0996 22.912 20.2559 22.7558C20.4122 22.5995 20.5 22.3875 20.5 22.1665V17.1665C20.5 16.9455 20.4122 16.7335 20.2559 16.5772C20.0996 16.421 19.8877 16.3332 19.6667 16.3332C19.4457 16.3332 19.2337 16.421 19.0774 16.5772C18.9211 16.7335 18.8333 16.9455 18.8333 17.1665V22.1665C18.8333 22.3875 18.9211 22.5995 19.0774 22.7558C19.2337 22.912 19.4457 22.9998 19.6667 22.9998Z" fill="#1D3853"/>
<rect x="0.5" y="0.5" width="35" height="35" rx="5.5" stroke="#1D3853"/>
</svg>
