<svg width="36" height="36" viewBox="0 0 36 36" fill="none" xmlns="http://www.w3.org/2000/svg">
<rect width="36" height="36" fill="#EDF2F7"/>
<g clip-path="url(#clip0_6203_45613)">
<rect width="1440" height="1269" transform="translate(-614 -200)" fill="#F9F9FF"/>
<g filter="url(#filter0_dd_6203_45613)">
<rect x="-508" y="-40" width="1228" height="1044" rx="8" fill="white"/>
<rect x="-483.5" y="-15.5" width="583" height="579" rx="7.5" fill="#F9F9FC"/>
<rect x="0.5" y="0.5" width="35" height="35" rx="5.5" fill="#FDFDFF"/>
<path d="M25.1956 18.0023C24.9835 18.0023 24.7801 18.0866 24.6301 18.2366C24.4801 18.3866 24.3958 18.59 24.3958 18.8021V23.6007C24.3958 23.8128 24.3116 24.0162 24.1616 24.1662C24.0116 24.3162 23.8082 24.4005 23.5961 24.4005H12.3993C12.1872 24.4005 11.9838 24.3162 11.8338 24.1662C11.6838 24.0162 11.5995 23.8128 11.5995 23.6007V12.4039C11.5995 12.1918 11.6838 11.9884 11.8338 11.8384C11.9838 11.6884 12.1872 11.6042 12.3993 11.6042H17.1979C17.41 11.6042 17.6134 11.5199 17.7634 11.3699C17.9134 11.2199 17.9977 11.0165 17.9977 10.8044C17.9977 10.5923 17.9134 10.3889 17.7634 10.2389C17.6134 10.0889 17.41 10.0046 17.1979 10.0046H12.3993C11.763 10.0046 11.1527 10.2574 10.7027 10.7074C10.2528 11.1573 10 11.7676 10 12.4039V23.6007C10 24.237 10.2528 24.8473 10.7027 25.2973C11.1527 25.7472 11.763 26 12.3993 26H23.5961C24.2324 26 24.8427 25.7472 25.2926 25.2973C25.7426 24.8473 25.9954 24.237 25.9954 23.6007V18.8021C25.9954 18.59 25.9111 18.3866 25.7611 18.2366C25.6111 18.0866 25.4077 18.0023 25.1956 18.0023ZM13.1991 18.6101V22.0012C13.1991 22.2133 13.2833 22.4167 13.4333 22.5667C13.5833 22.7167 13.7867 22.8009 13.9988 22.8009H17.3899C17.4951 22.8015 17.5995 22.7814 17.6969 22.7416C17.7943 22.7018 17.883 22.6431 17.9577 22.569L23.4921 17.0266L25.7634 14.8032C25.8384 14.7289 25.8979 14.6404 25.9385 14.543C25.9791 14.4455 26 14.341 26 14.2354C26 14.1298 25.9791 14.0253 25.9385 13.9278C25.8979 13.8304 25.8384 13.7419 25.7634 13.6676L22.3724 10.2366C22.2981 10.1616 22.2096 10.1021 22.1122 10.0615C22.0147 10.0209 21.9102 10 21.8046 10C21.699 10 21.5945 10.0209 21.497 10.0615C21.3995 10.1021 21.3111 10.1616 21.2367 10.2366L18.9814 12.4999L13.431 18.0423C13.3569 18.117 13.2982 18.2057 13.2584 18.3031C13.2186 18.4005 13.1985 18.5049 13.1991 18.6101ZM21.8046 11.9321L24.0679 14.1954L22.9323 15.3311L20.6689 13.0677L21.8046 11.9321ZM14.7986 18.938L19.5412 14.1954L21.8046 16.4588L17.062 21.2014H14.7986V18.938Z" fill="#1D3853"/>
<rect x="0.5" y="0.5" width="35" height="35" rx="5.5" stroke="#1D3853"/>
<rect x="-483.5" y="-15.5" width="583" height="579" rx="7.5" stroke="#E7E7E7"/>
</g>
</g>
<path d="M-651 -284H864V-286H-651V-284ZM865 -283V1153H867V-283H865ZM864 1154H-651V1156H864V1154ZM-652 1153V-283H-654V1153H-652ZM-651 1154C-651.552 1154 -652 1153.55 -652 1153H-654C-654 1154.66 -652.657 1156 -651 1156V1154ZM865 1153C865 1153.55 864.552 1154 864 1154V1156C865.657 1156 867 1154.66 867 1153H865ZM864 -284C864.552 -284 865 -283.552 865 -283H867C867 -284.657 865.657 -286 864 -286V-284ZM-651 -286C-652.657 -286 -654 -284.657 -654 -283H-652C-652 -283.552 -651.552 -284 -651 -284V-286Z" fill="black" fill-opacity="0.1"/>
<defs>
<filter id="filter0_dd_6203_45613" x="-511" y="-42" width="1234" height="1050" filterUnits="userSpaceOnUse" color-interpolation-filters="sRGB">
<feFlood flood-opacity="0" result="BackgroundImageFix"/>
<feColorMatrix in="SourceAlpha" type="matrix" values="0 0 0 0 0 0 0 0 0 0 0 0 0 0 0 0 0 0 127 0" result="hardAlpha"/>
<feOffset dy="1"/>
<feGaussianBlur stdDeviation="1"/>
<feColorMatrix type="matrix" values="0 0 0 0 0 0 0 0 0 0 0 0 0 0 0 0 0 0 0.06 0"/>
<feBlend mode="normal" in2="BackgroundImageFix" result="effect1_dropShadow_6203_45613"/>
<feColorMatrix in="SourceAlpha" type="matrix" values="0 0 0 0 0 0 0 0 0 0 0 0 0 0 0 0 0 0 127 0" result="hardAlpha"/>
<feOffset dy="1"/>
<feGaussianBlur stdDeviation="1.5"/>
<feColorMatrix type="matrix" values="0 0 0 0 0 0 0 0 0 0 0 0 0 0 0 0 0 0 0.1 0"/>
<feBlend mode="normal" in2="effect1_dropShadow_6203_45613" result="effect2_dropShadow_6203_45613"/>
<feBlend mode="normal" in="SourceGraphic" in2="effect2_dropShadow_6203_45613" result="shape"/>
</filter>
<clipPath id="clip0_6203_45613">
<rect width="1440" height="1269" fill="white" transform="translate(-614 -200)"/>
</clipPath>
</defs>
</svg>
