<svg width="36" height="36" viewBox="0 0 36 36" fill="none" xmlns="http://www.w3.org/2000/svg">
<rect x="0.5" y="0.5" width="35" height="35" rx="5.5" fill="#FDFDFF"/>
<path d="M19.175 18L24.425 12.7583C24.5819 12.6014 24.6701 12.3886 24.6701 12.1667C24.6701 11.9448 24.5819 11.7319 24.425 11.575C24.2681 11.4181 24.0552 11.3299 23.8333 11.3299C23.6114 11.3299 23.3986 11.4181 23.2417 11.575L18 16.825L12.7583 11.575C12.6014 11.4181 12.3886 11.3299 12.1667 11.3299C11.9447 11.3299 11.7319 11.4181 11.575 11.575C11.4181 11.7319 11.3299 11.9448 11.3299 12.1667C11.3299 12.3886 11.4181 12.6014 11.575 12.7583L16.825 18L11.575 23.2417C11.4969 23.3191 11.4349 23.4113 11.3926 23.5129C11.3503 23.6144 11.3285 23.7233 11.3285 23.8333C11.3285 23.9433 11.3503 24.0523 11.3926 24.1538C11.4349 24.2554 11.4969 24.3475 11.575 24.425C11.6525 24.5031 11.7446 24.5651 11.8462 24.6074C11.9477 24.6497 12.0566 24.6715 12.1667 24.6715C12.2767 24.6715 12.3856 24.6497 12.4871 24.6074C12.5887 24.5651 12.6809 24.5031 12.7583 24.425L18 19.175L23.2417 24.425C23.3191 24.5031 23.4113 24.5651 23.5128 24.6074C23.6144 24.6497 23.7233 24.6715 23.8333 24.6715C23.9433 24.6715 24.0523 24.6497 24.1538 24.6074C24.2554 24.5651 24.3475 24.5031 24.425 24.425C24.5031 24.3475 24.5651 24.2554 24.6074 24.1538C24.6497 24.0523 24.6715 23.9433 24.6715 23.8333C24.6715 23.7233 24.6497 23.6144 24.6074 23.5129C24.5651 23.4113 24.5031 23.3191 24.425 23.2417L19.175 18Z" fill="#1D3853"/>
<rect x="0.5" y="0.5" width="35" height="35" rx="5.5" stroke="#1D3853"/>
</svg>
