<svg width="20" height="12" viewBox="0 0 20 12" fill="none" xmlns="http://www.w3.org/2000/svg">
<path fill-rule="evenodd" clip-rule="evenodd" d="M0.833374 6C2.75671 2.715 5.88671 0.166664 10 0.166664C14.1125 0.166664 17.2442 2.715 19.1667 6C17.2442 9.285 14.1134 11.8333 10 11.8333C5.88671 11.8333 2.75671 9.285 0.833374 6ZM2.81337 6C4.15921 7.90583 6.40837 10.1667 10 10.1667C13.5925 10.1667 15.8417 7.90583 17.1867 6C15.8417 4.09416 13.5925 1.83333 10 1.83333C6.40837 1.83333 4.15921 4.09416 2.81337 6ZM12.5 6C12.5 7.38071 11.3807 8.5 10 8.5C8.61929 8.5 7.5 7.38071 7.5 6C7.5 4.61929 8.61929 3.5 10 3.5C11.3807 3.5 12.5 4.61929 12.5 6Z" fill="#667085"/>
</svg>
