<svg width="20" height="12" viewBox="0 0 20 12" fill="none" xmlns="http://www.w3.org/2000/svg">
<path fill-rule="evenodd" clip-rule="evenodd" d="M0.833496 6C2.75683 2.715 5.88683 0.166664 10.0002 0.166664C14.1127 0.166664 17.2443 2.715 19.1668 6C17.2443 9.285 14.1135 11.8333 10.0002 11.8333C5.88683 11.8333 2.75683 9.285 0.833496 6ZM2.8135 6C4.15933 7.90583 6.4085 10.1667 10.0002 10.1667C13.5927 10.1667 15.8418 7.90583 17.1868 6C15.8418 4.09416 13.5927 1.83333 10.0002 1.83333C6.4085 1.83333 4.15933 4.09416 2.8135 6ZM12.5001 6C12.5001 7.38071 11.3808 8.5 10.0001 8.5C8.61941 8.5 7.50012 7.38071 7.50012 6C7.50012 4.61929 8.61941 3.5 10.0001 3.5C11.3808 3.5 12.5001 4.61929 12.5001 6Z" fill="#4F4FFF"/>
</svg>
